#!OML:ASF H:\Pregnant\Project 1\Capture day 1\Session 1\femalepreg.ASF
:FULLY-SPECIFIED
:DEGREES
1792
root 7.62678 15.8847 21.398 379.651 -74.8402 -356.906
lowerback -14.401 -3.41358 3.84098
upperback -12.7685 -5.7013 0.332694
thorax -5.93397 -3.51406 -2.23907
lowerneck -23.972 3.7203 1.46093
upperneck 37.9874 3.94831 0.536887
head 18.3265 1.52482 0.764813
rclavicle -7.63706e-014 -5.2181e-014
rhumerus -34.3969 -50.6296 32.3246
rradius 25.0501
rwrist 21.6833
rhand -13.5884 -16.6225
rfingers 7.12502
rthumb 12.526 -46.2271
lclavicle -7.63706e-014 -5.2181e-014
lhumerus -19.8401 41.938 -18.0941
lradius 26.9046
lwrist 4.73028
lhand -26.4119 -0.804509
lfingers 7.12502
lthumb 0.147876 29.1752
rfemur -27.9284 4.11069 30.4469
rtibia 19.0148
rfoot -11.0003 -8.80539
rtoes 20.4442
lfemur -270.245 -9.50454 115.078
ltibia 158.943
lfoot -66.7187 9.32569
ltoes -22.1362
1793
root 7.6271 15.8853 21.3991 379.661 -74.9048 -356.882
lowerback -14.4193 -3.40478 3.87662
upperback -12.7731 -5.69455 0.350633
thorax -5.9307 -3.51322 -2.24042
lowerneck -24.0395 3.7226 1.46825
upperneck 37.9489 3.95509 0.529907
head 18.3225 1.52952 0.763212
rclavicle -9.42985e-015 -3.77691e-015
rhumerus -34.5074 -50.609 32.4193
rradius 25.0589
rwrist 21.6797
rhand -13.9839 -16.704
rfingers 7.12502
rthumb 12.1446 -46.3315
lclavicle -9.42985e-015 -3.77691e-015
lhumerus -19.9356 41.9295 -18.1739
lradius 26.8947
lwrist 4.71051
lhand -26.3666 -0.731137
lfingers 7.12502
lthumb 0.191683 29.2485
rfemur -27.9745 4.20195 30.3995
rtibia 19.0409
rfoot -11.0123 -8.83054
rtoes 20.4632
lfemur -270.244 -9.41606 115.121
ltibia 158.936
lfoot -66.6917 9.23157
ltoes -22.1596
1794
root 7.62756 15.8858 21.4004 379.674 -74.9732 -356.863
lowerback -14.4261 -3.3968 3.899
upperback -12.7822 -5.68696 0.379438
thorax -5.93581 -3.51063 -2.22176
lowerneck -24.1 3.72463 1.47188
upperneck 37.9107 3.9678 0.511978
head 18.317 1.53426 0.758253
rclavicle 5.29388e-014 1.5704e-014
rhumerus -34.605 -50.5916 32.5139
rradius 25.0677
rwrist 21.6741
rhand -14.1994 -16.7384
rfingers 7.12502
rthumb 11.9368 -46.3781
lclavicle 5.29388e-014 1.5704e-014
lhumerus -20.046 41.8267 -18.2296
lradius 26.8966
lwrist 4.76273
lhand -26.33 -0.654408
lfingers 7.12502
lthumb 0.226975 29.3252
rfemur -28.0203 4.28252 30.3557
rtibia 19.0673
rfoot -11.024 -8.8439
rtoes 20.4628
lfemur -270.236 -9.29884 115.181
ltibia 158.93
lfoot -66.6309 9.10777
ltoes -22.1921
1795
root 7.62812 15.8863 21.4019 379.687 -75.0437 -356.846
lowerback -14.4288 -3.38829 3.91167
upperback -12.7905 -5.67709 0.416223
thorax -5.94003 -3.50558 -2.18897
lowerneck -24.1574 3.72435 1.46452
upperneck 37.8704 3.9838 0.490424
head 18.3093 1.53816 0.754144
rclavicle -3.63776e-014 -9.54166e-015
rhumerus -34.6973 -50.5924 32.62
rradius 25.0715
rwrist 21.6819
rhand -14.216 -16.7274
rfingers 7.12502
rthumb 11.9208 -46.3681
lclavicle -3.63776e-014 -9.54166e-015
lhumerus -20.1616 41.6937 -18.2644
lradius 26.9021
lwrist 4.83521
lhand -26.3066 -0.583428
lfingers 7.12502
lthumb 0.249618 29.3962
rfemur -28.0659 4.35033 30.3152
rtibia 19.0949
rfoot -11.0358 -8.84442
rtoes 20.4456
lfemur -270.222 -9.15664 115.253
ltibia 158.925
lfoot -66.5402 8.96295
ltoes -22.2271
1796
root 7.62877 15.8869 21.4035 379.7 -75.1183 -356.83
lowerback -14.4242 -3.38032 3.91687
upperback -12.8011 -5.66676 0.459332
thorax -5.949 -3.49952 -2.14465
lowerneck -24.2078 3.7243 1.45231
upperneck 37.8307 4.00424 0.464276
head 18.3002 1.54228 0.749541
rclavicle 2.10712e-014 1.39149e-014
rhumerus -34.7676 -50.5962 32.7153
rradius 25.0678
rwrist 21.6949
rhand -14.0849 -16.6877
rfingers 7.12502
rthumb 12.0472 -46.321
lclavicle 2.10712e-014 1.39149e-014
lhumerus -20.2826 41.5934 -18.2972
lradius 26.9048
lwrist 4.86619
lhand -26.2824 -0.531969
lfingers 7.12502
lthumb 0.272958 29.4476
rfemur -28.1112 4.40183 30.2791
rtibia 19.1234
rfoot -11.0458 -8.82755
rtoes 20.4033
lfemur -270.2 -9.0013 115.332
ltibia 158.917
lfoot -66.4309 8.80093
ltoes -22.2718
1797
root 7.62984 15.8878 21.4059 379.693 -75.1808 -356.791
lowerback -14.4285 -3.37493 3.94134
upperback -12.806 -5.6623 0.487983
thorax -5.95127 -3.49835 -2.1276
lowerneck -24.2576 3.72788 1.45114
upperneck 37.7894 4.02182 0.445516
head 18.2901 1.54813 0.745834
rclavicle 1.26477e-014 -1.75924e-014
rhumerus -34.8421 -50.6131 32.7935
rradius 25.0564
rwrist 21.7223
rhand -13.8537 -16.6323
rfingers 7.12502
rthumb 12.2702 -46.2523
lclavicle 1.26477e-014 -1.75924e-014
lhumerus -20.3917 41.5926 -18.3542
lradius 26.8969
lwrist 4.80959
lhand -26.2608 -0.49752
lfingers 7.12502
lthumb 0.293887 29.482
rfemur -28.1635 4.43676 30.2371
rtibia 19.1528
rfoot -11.0527 -8.80764
rtoes 20.3612
lfemur -270.156 -8.85645 115.385
ltibia 158.9
lfoot -66.3222 8.67037
ltoes -22.2973
1798
root 7.63125 15.8891 21.409 379.677 -75.2337 -356.739
lowerback -14.4449 -3.37112 3.99434
upperback -12.8041 -5.66364 0.496061
thorax -5.94548 -3.50303 -2.14965
lowerneck -24.3055 3.73715 1.47066
upperneck 37.7475 4.03389 0.436714
head 18.2796 1.55644 0.741933
rclavicle 8.02842e-014 3.47873e-014
rhumerus -34.9331 -50.655 32.8533
rradius 25.039
rwrist 21.7764
rhand -13.6492 -16.5946
rfingers 7.12502
rthumb 12.4673 -46.2027
lclavicle 8.02842e-014 3.47873e-014
lhumerus -20.4845 41.6678 -18.4414
lradius 26.8826
lwrist 4.6974
lhand -26.2379 -0.485304
lfingers 7.12502
lthumb 0.315944 29.4942
rfemur -28.2222 4.45341 30.1942
rtibia 19.1829
rfoot -11.0556 -8.77799
rtoes 20.3064
lfemur -270.093 -8.75159 115.403
ltibia 158.876
lfoot -66.2334 8.59934
ltoes -22.3082
1799
root 7.63292 15.8907 21.4125 379.655 -75.2798 -356.678
lowerback -14.4631 -3.36722 4.0659
upperback -12.8036 -5.66739 0.491959
thorax -5.94419 -3.51122 -2.19482
lowerneck -24.3447 3.74825 1.49484
upperneck 37.7104 4.04095 0.43931
head 18.2694 1.56495 0.741251
rclavicle -2.04748e-014 -4.96962e-015
rhumerus -35.0213 -50.6953 32.8907
rradius 25.0185
rwrist 21.8296
rhand -13.5201 -16.5824
rfingers 7.12502
rthumb 12.5918 -46.1829
lclavicle -2.04748e-014 -4.96962e-015
lhumerus -20.5648 41.7489 -18.533
lradius 26.8709
lwrist 4.58975
lhand -26.2075 -0.488273
lfingers 7.12502
lthumb 0.345311 29.4912
rfemur -28.2849 4.4769 30.1435
rtibia 19.2131
rfoot -11.0542 -8.75941
rtoes 20.2552
lfemur -270.015 -8.69089 115.385
ltibia 158.846
lfoot -66.1723 8.58673
ltoes -22.3017
1800
root 7.63472 15.8926 21.4164 379.631 -75.3225 -356.613
lowerback -14.481 -3.3646 4.13806
upperback -12.8079 -5.67328 0.488993
thorax -5.94843 -3.52085 -2.23894
lowerneck -24.3734 3.75951 1.51436
upperneck 37.6794 4.04823 0.445569
head 18.2597 1.57307 0.742909
rclavicle -2.29348e-014 -1.94809e-014
rhumerus -35.1029 -50.7592 32.9276
rradius 24.9912
rwrist 21.8995
rhand -13.4598 -16.5857
rfingers 7.12502
rthumb 12.65 -46.1826
lclavicle -2.29348e-014 -1.94809e-014
lhumerus -20.6471 41.7998 -18.6139
lradius 26.8676
lwrist 4.51896
lhand -26.1649 -0.492463
lfingers 7.12502
lthumb 0.386457 29.4869
rfemur -28.3495 4.52444 30.0816
rtibia 19.2405
rfoot -11.0496 -8.76421
rtoes 20.2309
lfemur -269.929 -8.6784 115.334
ltibia 158.812
lfoot -66.1446 8.63255
ltoes -22.2795
1801
root 7.63636 15.8945 21.4201 379.618 -75.3692 -356.558
lowerback -14.4984 -3.36023 4.20018
upperback -12.8156 -5.67584 0.494177
thorax -5.95453 -3.52782 -2.26847
lowerneck -24.3946 3.7665 1.51868
upperneck 37.6556 4.0544 0.454295
head 18.2514 1.5785 0.747941
rclavicle -1.63252e-014 -8.74653e-015
rhumerus -35.1716 -50.8222 32.964
rradius 24.9604
rwrist 21.9578
rhand -13.4259 -16.5973
rfingers 7.12502
rthumb 12.6826 -46.1922
lclavicle -1.63252e-014 -8.74653e-015
lhumerus -20.7297 41.7613 -18.6592
lradius 26.8754
lwrist 4.54387
lhand -26.1217 -0.484997
lfingers 7.12502
lthumb 0.42824 29.4943
rfemur -28.4101 4.6021 30.0135
rtibia 19.2631
rfoot -11.0414 -8.7923
rtoes 20.2123
lfemur -269.848 -8.69242 115.274
ltibia 158.779
lfoot -66.1407 8.69749
ltoes -22.2582
1802
root 7.63769 15.8964 21.4236 379.617 -75.4247 -356.516
lowerback -14.5168 -3.35377 4.24399
upperback -12.825 -5.67363 0.510742
thorax -5.95814 -3.53042 -2.27569
lowerneck -24.4112 3.7692 1.51072
upperneck 37.6373 4.06146 0.458139
head 18.2448 1.58142 0.752929
rclavicle 3.61043e-014 4.03533e-014
rhumerus -35.2393 -50.9049 33.0182
rradius 24.9289
rwrist 22.0268
rhand -13.404 -16.6084
rfingers 7.12502
rthumb 12.7037 -46.202
lclavicle 3.61043e-014 4.03533e-014
lhumerus -20.8151 41.6942 -18.6767
lradius 26.8866
lwrist 4.60223
lhand -26.0791 -0.468056
lfingers 7.12502
lthumb 0.469365 29.5112
rfemur -28.4643 4.71406 29.9392
rtibia 19.2789
rfoot -11.0277 -8.84529
rtoes 20.2026
lfemur -269.785 -8.73476 115.209
ltibia 158.75
lfoot -66.1686 8.76768
ltoes -22.2308
1803
root 7.63862 15.8981 21.4266 379.629 -75.4885 -356.489
lowerback -14.5398 -3.34151 4.28156
upperback -12.8332 -5.66334 0.526679
thorax -5.9567 -3.52839 -2.28003
lowerneck -24.4241 3.76713 1.49785
upperneck 37.6226 4.06172 0.465209
head 18.239 1.58125 0.758679
rclavicle 6.23438e-014 -1.55052e-014
rhumerus -35.3235 -50.9911 33.0882
rradius 24.9024
rwrist 22.1002
rhand -13.4482 -16.6274
rfingers 7.12502
rthumb 12.6611 -46.2237
lclavicle 6.23438e-014 -1.55052e-014
lhumerus -20.8816 41.6277 -18.67
lradius 26.8959
lwrist 4.66768
lhand -26.0529 -0.439944
lfingers 7.12502
lthumb 0.494681 29.5392
rfemur -28.5124 4.84665 29.8651
rtibia 19.2888
rfoot -11.0084 -8.912
rtoes 20.1784
lfemur -269.743 -8.79783 115.145
ltibia 158.726
lfoot -66.2252 8.83831
ltoes -22.1919
1804
root 7.63901 15.8997 21.4292 379.657 -75.5651 -356.481
lowerback -14.5675 -3.32344 4.31898
upperback -12.8389 -5.64571 0.536359
thorax -5.95002 -3.52281 -2.2909
lowerneck -24.4346 3.76459 1.49374
upperneck 37.6128 4.05608 0.473664
head 18.2357 1.58005 0.76222
rclavicle 9.44227e-015 4.01545e-014
rhumerus -35.4228 -51.0766 33.1585
rradius 24.8826
rwrist 22.1798
rhand -13.5214 -16.6596
rfingers 7.12502
rthumb 12.5905 -46.2602
lclavicle 9.44227e-015 4.01545e-014
lhumerus -20.9272 41.5977 -18.66
lradius 26.8999
lwrist 4.70512
lhand -26.0312 -0.417559
lfingers 7.12502
lthumb 0.51561 29.5616
rfemur -28.5525 4.99636 29.7943
rtibia 19.2945
rfoot -10.9841 -8.98361
rtoes 20.1429
lfemur -269.726 -8.8678 115.095
ltibia 158.707
lfoot -66.3027 8.89181
ltoes -22.1558
1805
root 7.63918 15.9014 21.4318 379.679 -75.6384 -356.465
lowerback -14.6022 -3.3029 4.37236
upperback -12.843 -5.62737 0.528902
thorax -5.94156 -3.51898 -2.32913
lowerneck -24.44 3.76403 1.50681
upperneck 37.6053 4.04277 0.487181
head 18.2328 1.57902 0.763333
rclavicle 4.98701e-014 2.0276e-014
rhumerus -35.5129 -51.0989 33.1794
rradius 24.8712
rwrist 22.2108
rhand -13.5268 -16.6826
rfingers 7.12502
rthumb 12.5853 -46.2835
lclavicle 4.98701e-014 2.0276e-014
lhumerus -20.9442 41.6016 -18.6572
lradius 26.898
lwrist 4.71659
lhand -26.014 -0.388479
lfingers 7.12502
lthumb 0.532176 29.5906
rfemur -28.592 5.15593 29.718
rtibia 19.2994
rfoot -10.9578 -9.06711
rtoes 20.1157
lfemur -269.716 -8.91891 115.055
ltibia 158.688
lfoot -66.3755 8.92751
ltoes -22.1203
